<svg width="63" height="18" viewBox="0 0 63 18" fill="none" xmlns="http://www.w3.org/2000/svg">
<g id="paypal">
<g id="XMLID 2">
<g id="XMLID 3">
<g id="XMLID 4">
<path id="XMLID 30" d="M8.61373 5.15554C8.38758 6.85166 7.03069 6.85166 5.78687 6.85166H5.10842L5.67379 3.5725C5.67379 3.34635 5.89993 3.23328 6.12608 3.23328H6.46533C7.36992 3.23328 8.16143 3.23328 8.61373 3.68558C8.61373 4.13787 8.61373 4.59017 8.61373 5.15554ZM8.04836 0.632568H3.18616C2.84694 0.632568 2.6208 0.858717 2.50773 1.19794L0.585449 13.6361C0.585449 13.8623 0.698534 14.0884 1.03776 14.0884H3.29924C3.63847 14.0884 3.8646 13.8623 3.97768 13.523L4.54305 10.1308C4.54305 9.79159 4.88228 9.56545 5.2215 9.56545H6.80454C9.97062 9.56545 11.7798 7.9824 12.3452 4.92939C12.5713 3.5725 12.3452 2.55483 11.7798 1.76331C10.8752 1.08487 9.6314 0.632568 8.04836 0.632568Z" fill="#263577"/>
<path id="XMLID 27" d="M19.2422 9.67857C19.016 11.0355 17.9984 11.9401 16.6415 11.9401C15.963 11.9401 15.3977 11.7139 15.0585 11.2616C14.7192 10.8093 14.6061 10.2439 14.7192 9.67857C14.9454 8.32168 15.9631 7.41708 17.3199 7.41708C17.9984 7.41708 18.5638 7.64323 18.903 8.09552C19.1291 8.43475 19.3553 9.00012 19.2422 9.67857ZM22.4083 5.15559H20.1468C19.9207 5.15559 19.8076 5.26867 19.6945 5.49482L19.5814 6.17326L19.4684 5.94711C19.0161 5.26867 17.8853 4.92944 16.7546 4.92944C14.1539 4.92944 12.0055 6.85171 11.5532 9.5655C11.327 10.9224 11.6662 12.1662 12.4577 13.0708C13.1362 13.8623 14.1539 14.2015 15.3977 14.2015C17.433 14.2015 18.5637 12.8447 18.5637 12.8447L18.4507 13.5231C18.4507 13.7492 18.5638 13.9754 18.903 13.9754H20.9383C21.2775 13.9754 21.5037 13.7492 21.6168 13.41L22.8606 5.49482C22.8606 5.38174 22.7475 5.15559 22.4083 5.15559Z" fill="#263577"/>
<path id="XMLID 26" d="M34.735 5.15552H32.3605C32.1343 5.15552 31.9082 5.26859 31.7951 5.49474L28.629 10.2439L27.2721 5.72089C27.159 5.38167 26.9329 5.26859 26.5937 5.26859H24.3322C24.106 5.26859 23.8799 5.49474 23.993 5.83396L26.5937 13.2969L24.2191 16.6891C23.9929 16.9152 24.2191 17.3676 24.5583 17.3676H26.9329C27.1591 17.3676 27.3852 17.2545 27.4983 17.0283L35.1873 5.83396C35.3004 5.49474 35.0743 5.15552 34.735 5.15552Z" fill="#263577"/>
<path id="XMLID 21" d="M42.9897 5.15554C42.7636 6.85166 41.4067 6.85166 40.1629 6.85166H39.4844L40.0498 3.5725C40.0498 3.34635 40.2759 3.23328 40.5021 3.23328H40.8413C41.7459 3.23328 42.5374 3.23328 42.9897 3.68558C43.1028 4.13787 43.1028 4.59017 42.9897 5.15554ZM42.4243 0.632568H37.5622C37.2229 0.632568 36.9968 0.858717 36.8837 1.19794L34.9614 13.6361C34.9614 13.8623 35.0745 14.0884 35.4138 14.0884H37.9014C38.1275 14.0884 38.3537 13.9753 38.3537 13.6361L38.919 10.1308C38.919 9.79159 39.2583 9.56545 39.5975 9.56545H41.1805C44.3466 9.56545 46.1558 7.9824 46.7212 4.92939C46.9473 3.5725 46.7212 2.55483 46.1558 1.76331C45.3643 1.08487 44.1205 0.632568 42.4243 0.632568Z" fill="#2199D6"/>
<path id="XMLID 13" d="M53.7319 9.67857C53.5058 11.0355 52.4881 11.9401 51.1312 11.9401C50.4528 11.9401 49.8874 11.7139 49.5482 11.2616C49.209 10.8093 49.0959 10.2439 49.209 9.67857C49.4351 8.32168 50.4528 7.41708 51.8097 7.41708C52.4881 7.41708 53.0535 7.64323 53.3927 8.09552C53.6189 8.43475 53.845 9.00012 53.7319 9.67857ZM56.898 5.15559H54.6365C54.4104 5.15559 54.2973 5.26867 54.1842 5.49482L54.0712 6.17326L53.9581 5.94711C53.5058 5.26867 52.3751 4.92944 51.2443 4.92944C48.6436 4.92944 46.4952 6.85171 46.0429 9.5655C45.8168 10.9224 46.156 12.1662 46.9475 13.0708C47.6259 13.8623 48.6436 14.2015 49.8874 14.2015C51.9228 14.2015 53.0535 12.8447 53.0535 12.8447L52.9404 13.5231C52.9404 13.7492 53.0535 13.9754 53.3927 13.9754H55.428C55.7673 13.9754 55.9934 13.7492 56.1065 13.41L57.3503 5.49482C57.3503 5.38174 57.1242 5.15559 56.898 5.15559Z" fill="#2199D6"/>
<path id="XMLID 12" d="M59.6106 0.971791L57.5752 13.6361C57.5752 13.8623 57.6883 14.0884 58.0275 14.0884H60.0628C60.4021 14.0884 60.6282 13.8623 60.7413 13.523L62.6635 1.08487C62.6635 0.858719 62.5505 0.632568 62.2112 0.632568H59.9498C59.8367 0.632568 59.7236 0.858716 59.6106 0.971791Z" fill="#2199D6"/>
</g>
</g>
</g>
</g>
</svg>
